<?xml version="1.0" standalone="no"?>
<!DOCTYPE svg PUBLIC "-//W3C//DTD SVG 20010904//EN"
 "http://www.w3.org/TR/2001/REC-SVG-20010904/DTD/svg10.dtd">
<svg version="1.0" xmlns="http://www.w3.org/2000/svg"
 width="260.000000pt" height="260.000000pt" viewBox="0 0 260.000000 260.000000"
 preserveAspectRatio="xMidYMid meet">
<metadata>
Created by potrace 1.11, written by Peter Selinger 2001-2013
</metadata>
<g transform="translate(0.000000,260.000000) scale(0.100000,-0.100000)"
fill="#000000" stroke="none">
<path d="M461 2484 c-125 -34 -241 -124 -300 -233 -63 -118 -61 -95 -59 -976
3 -759 4 -803 22 -850 59 -155 183 -268 337 -309 84 -22 1588 -23 1673 -1 176
46 317 191 356 365 6 28 9 341 7 845 l-2 800 -24 60 c-61 154 -179 259 -336
300 -86 22 -1591 21 -1674 -1z"/>
</g>
</svg>
